<svg width="48" height="32" viewBox="795.27187,372.43305,182.42812,103.51539" xmlns="http://www.w3.org/2000/svg"><defs><linearGradient id="logoGradient" x1="0%" y1="0%" x2="100%" y2="100%"><stop offset="0%" stop-color="#3b82f6"></stop><stop offset="100%" stop-color="#8b5cf6"></stop></linearGradient></defs><path d="M795.27187,372.77187c8.69769,-0.07435 17.39519,-0.12841 26.09313,-0.16428c2.95415,-0.01497 5.90828,-0.03532 8.86236,-0.06133c4.26513,-0.03659 8.52996,-0.05332 12.79522,-0.06644c1.30428,-0.01544 2.60856,-0.03087 3.95237,-0.04677c13.5907,-0.00244 25.81511,1.94148 36.52037,10.80601c8.37,10.73077 8.97765,21.11332 7.47656,34.39219c-3.82946,9.73777 -10.02385,15.27464 -19.43906,19.43906c-0.98691,0 -1.97381,0 -2.99062,0c1.46098,2.71197 2.92586,5.42184 4.39248,8.13076c0.81535,1.50927 1.63071,3.01855 2.47077,4.57355c1.77516,3.5448 1.77516,3.5448 3.60394,5.23943c2.06429,0.1824 4.13749,0.2657 6.20942,0.30702c1.31713,0.02982 2.63425,0.05965 3.9913,0.09038c1.43144,0.02499 2.86288,0.04998 4.3377,0.07573c1.45825,0.03107 2.91649,0.06215 4.41892,0.09416c4.67755,0.0981 9.35524,0.18606 14.033,0.27382c3.16295,0.06456 6.32589,0.12978 9.48881,0.19568c7.7714,0.16047 15.54293,0.31261 23.31461,0.45852c-2.70486,-5.95256 -5.41709,-11.90174 -8.13076,-17.85029c-0.77198,-1.69914 -1.54397,-3.39827 -2.33935,-5.1489c-0.73729,-1.61432 -1.47458,-3.22865 -2.23421,-4.89189c-0.68127,-1.49566 -1.36254,-2.99132 -2.06445,-4.5323c-1.37973,-3.32754 -1.37973,-3.32754 -3.17498,-4.95943c-4.93453,9.37561 -9.86906,18.75122 -14.95312,28.41094c-6.90834,0 -13.81669,0 -20.93438,0c0.72476,-1.43217 1.44952,-2.86434 2.19624,-4.33991c4.86748,-9.65888 9.68036,-19.32571 14.20547,-29.15056c6.30192,-13.68063 13.41199,-26.76166 20.9811,-39.77984c3.22367,3.22367 4.53097,5.85343 6.46022,9.96486c1.006,2.12766 1.006,2.12766 2.03233,4.29829c1.06997,2.28451 1.06997,2.28451 2.16156,4.61517c1.49949,3.17054 3.00065,6.34029 4.50346,9.50925c0.73512,1.55071 1.47024,3.10143 2.22764,4.69914c2.57834,5.39315 5.24078,10.73915 7.94166,16.07169c5.37693,10.662 10.60038,21.39697 15.79424,32.14922c0.80945,1.66516 1.6189,3.33033 2.45288,5.04595c0.74801,1.55385 1.49602,3.10769 2.2667,4.70863c1.01341,2.0973 1.01341,2.0973 2.04729,4.23696c1.45735,3.39147 1.45735,3.39147 1.45735,6.38209c-38.48934,0 -76.97869,0 -116.63437,0c-20.6476,-41.29521 -20.6476,-41.29521 -22.42969,-52.33594c1.44181,-0.14649 2.88362,-0.29299 4.36912,-0.44392c1.889,-0.2236 3.778,-0.44719 5.72424,-0.67756c1.87358,-0.20818 3.74716,-0.41635 5.67751,-0.63083c5.72384,-1.37269 7.83608,-2.3889 11.14475,-7.21956c0.7195,-4.20892 0.7195,-4.20892 0.37383,-8.59805c-0.08096,-2.20897 -0.08096,-2.20897 -0.16355,-4.46257c-0.06939,-1.11798 -0.13878,-2.23596 -0.21028,-3.38782c-12.13214,-4.49008 -12.13214,-4.49008 -38.87812,-4.48594c0,27.13992 0,54.27984 0,82.24219c-7.89525,0 -15.7905,0 -23.925,0c-0.02096,-3.76722 -0.02096,-3.76722 -0.04235,-7.61054c-0.05334,-8.34403 -0.13393,-16.6875 -0.23264,-25.03112c-0.05881,-5.05353 -0.10705,-10.10669 -0.13023,-15.16052c-0.03216,-5.82454 -0.10199,-11.64762 -0.17888,-17.47172c-0.00184,-1.7949 -0.00367,-3.58981 -0.00557,-5.4391c-0.16505,-9.54616 -1.05438,-16.82579 -5.61052,-25.29733c-1.27636,-2.6803 -1.27636,-2.6803 -1.27636,-7.16623z" fill="url(#logoGradient)" fill-rule="nonzero"></path></svg>